<svg width="268" height="160" viewBox="0 0 268 160" fill="none" xmlns="http://www.w3.org/2000/svg">
<g clip-path="url(#clip0_235_530)">
<path d="M205.187 158.191C201.756 155.296 199.672 150.722 200.218 146.27C200.765 141.817 204.15 137.724 208.541 136.779C212.932 135.833 217.938 138.45 219.272 142.734C220.006 134.476 220.851 125.871 225.248 118.839C229.23 112.471 236.125 107.914 243.598 107.099C251.071 106.284 258.94 109.363 263.6 115.253C268.261 121.143 269.402 129.706 266.138 136.469C263.733 141.45 259.303 145.158 254.661 148.174C239.662 157.838 221.672 161.768 204.002 159.241L205.187 158.191Z" fill="#F2F2F2"/>
<path d="M256.21 109.534C250.044 114.549 244.387 120.158 239.321 126.281C231.394 135.829 224.978 146.534 220.299 158.024C219.956 158.862 221.319 159.227 221.658 158.398C229.314 139.725 241.537 123.267 257.207 110.529C257.911 109.957 256.908 108.966 256.21 109.534Z" fill="white"/>
<path d="M86.2735 157.404C90.9862 153.428 93.8487 147.146 93.098 141.031C92.3473 134.915 87.6977 129.293 81.6665 127.995C75.6354 126.696 68.7602 130.291 66.9283 136.174C65.9202 124.831 64.7584 113.014 58.7194 103.354C53.2512 94.6079 43.7802 88.3496 33.5158 87.23C23.2513 86.1104 12.4442 90.339 6.04265 98.4292C-0.358903 106.519 -1.9263 118.281 2.55718 127.569C5.86001 134.411 11.945 139.503 18.3205 143.646C38.6606 156.862 63.8926 162.375 87.9011 158.846" fill="#F2F2F2"/>
<path d="M16.193 90.5734C24.6624 97.4621 32.4322 105.167 39.39 113.575C46.3489 121.976 52.4755 131.03 57.6836 140.612C60.5948 145.986 63.2099 151.516 65.5174 157.175C65.9878 158.326 64.1158 158.828 63.6505 157.689C59.5634 147.712 54.5069 138.158 48.5535 129.165C42.629 120.205 35.8481 111.84 28.306 104.188C24.0402 99.8618 19.5394 95.7731 14.824 91.9405C13.8575 91.1545 15.2344 89.794 16.193 90.5734Z" fill="white"/>
<path d="M192.375 159.65H79.938V44.4497C79.938 19.94 99.9062 0 124.451 0H147.862C172.407 0 192.375 19.94 192.375 44.4497V159.65Z" fill="#F2F2F2"/>
<path d="M168.963 159.65H79.9379V44.4497C79.9133 35.0581 82.8914 25.9039 88.4386 18.3199C88.6431 18.0416 88.8471 17.7669 89.0574 17.4952C91.7406 13.9811 94.9336 10.8862 98.5311 8.31283C98.7343 8.16518 98.9384 8.02009 99.1454 7.875C102.156 5.79476 105.412 4.0942 108.84 2.81204C109.044 2.73499 109.251 2.65778 109.458 2.58373C112.559 1.47882 115.773 0.721958 119.041 0.327125C119.244 0.299486 119.452 0.277859 119.66 0.256231C122.845 -0.0838233 126.057 -0.0838233 129.242 0.256231C129.449 0.277859 129.657 0.299484 129.862 0.327421C133.13 0.722279 136.343 1.47905 139.443 2.58374C139.65 2.6578 139.857 2.735 140.061 2.8122C143.447 4.07819 146.665 5.75337 149.644 7.80035C149.851 7.94229 150.058 8.08739 150.262 8.23248C152.278 9.66986 154.172 11.2712 155.925 13.0201C157.33 14.423 158.639 15.9183 159.844 17.4961C160.054 17.7669 160.258 18.0416 160.462 18.3195C166.009 25.9036 168.988 35.0579 168.963 44.4497V159.65Z" fill="#FF0000"/>
<path d="M161.724 108.125C164.446 108.125 166.653 105.921 166.653 103.203C166.653 100.485 164.446 98.2815 161.724 98.2815C159.002 98.2815 156.795 100.485 156.795 103.203C156.795 105.921 159.002 108.125 161.724 108.125Z" fill="#FC9219"/>
<path d="M183.164 156.199H179.387L177.59 141.653L183.164 141.653L183.164 156.199Z" fill="#FFB8B8"/>
<path d="M176.689 155.122H183.973V159.701H172.104C172.104 159.1 172.222 158.504 172.453 157.949C172.683 157.393 173.021 156.888 173.447 156.463C173.873 156.038 174.378 155.7 174.935 155.47C175.491 155.24 176.087 155.122 176.689 155.122Z" fill="#2F2E41"/>
<path d="M201.955 156.199H198.178L196.381 141.653L201.955 141.653L201.955 156.199Z" fill="#FFB8B8"/>
<path d="M195.48 155.122H202.764V159.701H190.895C190.895 159.1 191.013 158.504 191.244 157.949C191.474 157.393 191.812 156.888 192.238 156.463C192.664 156.038 193.169 155.7 193.725 155.47C194.282 155.24 194.878 155.122 195.48 155.122Z" fill="#2F2E41"/>
<path d="M164.219 104.178C163.947 103.779 163.766 103.324 163.689 102.847C163.613 102.37 163.641 101.882 163.774 101.418C163.906 100.953 164.139 100.523 164.456 100.158C164.773 99.7929 165.166 99.5017 165.608 99.3048L178.446 63.9706L184.763 67.4132L170.105 101.18C170.387 101.943 170.379 102.783 170.082 103.54C169.786 104.298 169.221 104.92 168.495 105.29C167.77 105.659 166.934 105.75 166.146 105.546C165.357 105.341 164.672 104.854 164.219 104.178Z" fill="#FFB8B8"/>
<path d="M200.026 110.818C199.606 110.577 199.244 110.248 198.965 109.853C198.687 109.458 198.499 109.007 198.414 108.531C198.329 108.056 198.349 107.567 198.474 107.1C198.598 106.634 198.824 106.2 199.134 105.829L195.157 68.4518L202.346 68.7798L203.999 105.545C204.588 106.108 204.949 106.866 205.015 107.677C205.081 108.488 204.847 109.294 204.357 109.944C203.868 110.594 203.156 111.042 202.358 111.203C201.559 111.364 200.729 111.227 200.026 110.818Z" fill="#FFB8B8"/>
<path d="M188.557 57.4258C192.735 57.4258 196.123 54.0432 196.123 49.8706C196.123 45.6979 192.735 42.3153 188.557 42.3153C184.378 42.3153 180.991 45.6979 180.991 49.8706C180.991 54.0432 184.378 57.4258 188.557 57.4258Z" fill="#FFB8B8"/>
<path d="M199.977 102.317H177.167L177.195 102.14C177.236 101.875 181.26 75.5502 178.292 66.938C177.994 66.0917 178.02 65.1652 178.366 64.337C178.711 63.5088 179.35 62.8374 180.162 62.452C184.404 60.457 192.547 58.0005 199.421 63.9621C200.432 64.8538 201.222 65.9682 201.728 67.2173C202.233 68.4664 202.441 69.8158 202.335 71.1589L199.977 102.317Z" fill="#FC9219"/>
<path d="M181.548 79.4405L171.279 77.3601L176.093 65.9693C176.381 64.8661 177.095 63.922 178.079 63.3441C179.064 62.7662 180.237 62.6017 181.343 62.8867C182.448 63.1717 183.395 63.8829 183.977 64.8643C184.558 65.8457 184.725 67.0172 184.442 68.1219L181.548 79.4405Z" fill="#FC9219"/>
<path d="M194.701 83.3034L194.083 69.1713C193.615 66.5147 195.138 64.0034 197.48 63.5929C199.823 63.1839 202.111 65.0264 202.581 67.7025L204.901 80.9075L194.701 83.3034Z" fill="#FC9219"/>
<path d="M199.218 100.625C202.889 114.583 203.289 132.33 202.299 151.688L197.37 151.073L188.437 114.16L183.508 151.688L177.963 151.381C176.307 131.069 174.694 113.632 177.347 102.163L199.218 100.625Z" fill="#2F2E41"/>
<path d="M193.542 55.7095C192.131 57.2108 189.509 56.4049 189.325 54.3538C189.311 54.1945 189.312 54.0343 189.328 53.8752C189.423 52.9667 189.949 52.1418 189.823 51.1825C189.795 50.9438 189.706 50.7163 189.564 50.5215C188.44 49.0175 185.799 51.1942 184.738 49.8327C184.087 48.9978 184.852 47.6834 184.353 46.7503C183.693 45.5187 181.741 46.1262 180.516 45.4518C179.154 44.7014 179.235 42.614 180.132 41.3444C181.226 39.796 183.144 38.9698 185.037 38.8507C186.931 38.7316 188.812 39.2428 190.58 39.9308C192.589 40.7126 194.581 41.793 195.817 43.5568C197.32 45.7018 197.465 48.5856 196.713 51.0938C196.255 52.6196 194.695 54.4834 193.542 55.7095Z" fill="#2F2E41"/>
<path d="M258.753 159.848H31.3245C31.2274 159.847 31.1344 159.809 31.0658 159.74C30.9972 159.671 30.9587 159.578 30.9587 159.481C30.9587 159.384 30.9972 159.291 31.0658 159.223C31.1344 159.154 31.2274 159.115 31.3245 159.115H258.753C258.85 159.115 258.943 159.154 259.012 159.223C259.08 159.291 259.119 159.384 259.119 159.481C259.119 159.578 259.08 159.671 259.012 159.74C258.943 159.809 258.85 159.847 258.753 159.848Z" fill="#3F3D56"/>
<path d="M144.474 126.274H104.428C103.9 126.277 103.393 126.071 103.018 125.701C102.642 125.331 102.429 124.827 102.425 124.301V35.0415C102.429 34.5149 102.642 34.0114 103.018 33.6414C103.393 33.2714 103.9 33.0653 104.428 33.0681H144.474C145.001 33.0653 145.508 33.2714 145.883 33.6414C146.259 34.0114 146.472 34.5149 146.476 35.0415V124.301C146.472 124.827 146.259 125.331 145.883 125.701C145.508 126.071 145.001 126.277 144.474 126.274Z" fill="white"/>
<path d="M146.476 61.9495H102.425V62.5647H146.476V61.9495Z" fill="#FF0000"/>
<path d="M146.63 97.0511H102.579V97.6663H146.63V97.0511Z" fill="#FF0000"/>
<path d="M116.903 33.0681H116.287V126.582H116.903V33.0681Z" fill="#FF0000"/>
<path d="M132.306 33.0681H131.69V126.582H132.306V33.0681Z" fill="#FF0000"/>
</g>
<defs>
<clipPath id="clip0_235_530">
<rect width="268" height="160" fill="white"/>
</clipPath>
</defs>
</svg>
