<svg width="252" height="203" viewBox="0 0 252 203" fill="none" xmlns="http://www.w3.org/2000/svg">
<g id="undraw_waiting__for_you_ldha 1" clip-path="url(#clip0_237_491)">
<path id="Vector" d="M119.936 197.943C152.94 197.943 179.695 196.989 179.695 195.813C179.695 194.637 152.94 193.683 119.936 193.683C86.9325 193.683 60.1777 194.637 60.1777 195.813C60.1777 196.989 86.9325 197.943 119.936 197.943Z" fill="#3F3D56"/>
<path id="Vector_2" d="M92.0792 100.648C103.889 100.648 113.462 91.0944 113.462 79.3097C113.462 67.5249 103.889 57.9715 92.0792 57.9715C80.2699 57.9715 70.6965 67.5249 70.6965 79.3097C70.6965 91.0944 80.2699 100.648 92.0792 100.648Z" fill="#FF6584"/>
<path id="Vector_3" d="M66.8863 190.226C76.8394 190.226 84.9081 189.484 84.9081 188.568C84.9081 187.653 76.8394 186.911 66.8863 186.911C56.9331 186.911 48.8645 187.653 48.8645 188.568C48.8645 189.484 56.9331 190.226 66.8863 190.226Z" fill="#3F3D56"/>
<path id="Vector_4" d="M99.7178 195.959C99.7178 195.959 114.675 156.155 106.43 131.66C98.1836 107.165 91.6636 108.122 91.6636 108.122C91.6636 108.122 80.5413 105.251 66.7342 113.671C52.9271 122.092 49.2836 124.579 41.4212 121.135C33.5589 117.69 32.0247 112.332 12.8482 112.906C12.8482 112.906 23.0118 107.356 32.9836 112.332C42.9553 117.307 49.6671 119.986 59.8307 112.332C69.9942 104.677 83.993 94.7262 97.6084 100.659C97.6084 100.659 87.6366 90.8989 84.3766 90.8989C81.1166 90.8989 65.7754 89.368 60.7895 84.2011C60.7895 84.2011 53.6942 79.2256 41.0377 91.473C28.3812 103.72 31.4495 103.72 20.1353 102.764C8.82119 101.807 0 96.2571 0 96.2571C0 96.2571 13.2318 101.615 21.2859 98.9362C29.34 96.2571 36.2436 86.1147 43.3389 82.6701C50.4342 79.2256 54.653 74.6328 64.2412 79.6083C64.2412 79.6083 60.2142 63.1508 52.5436 64.4904C44.873 65.8299 56.1871 60.6631 56.1871 60.6631C56.1871 60.6631 54.0777 32.7236 50.0506 30.81C46.0236 28.8963 48.5165 23.9208 41.0377 22.964C41.0377 22.964 50.2424 21.8158 51.9683 28.1308C53.6942 34.4459 65.5836 68.5091 65.5836 68.5091C65.5836 68.5091 72.8707 83.0529 80.9248 79.6083C88.9789 76.1637 77.8566 56.8357 77.8566 56.8357L64.0495 50.5207C64.0495 50.5207 74.4048 50.1379 80.733 56.0703C87.0613 62.0026 87.4448 81.1392 87.4448 81.1392C87.4448 81.1392 103.361 83.4356 107.197 92.0471C107.197 92.0471 109.69 84.3924 104.895 79.7997C103.697 78.6515 102.438 76.6541 101.225 74.3039C96.5842 65.3162 95.0098 55.071 96.4698 45.0659C97.1842 40.1698 97.6238 35.3826 96.8413 34.2546C95.1154 31.7668 87.8283 16.4575 87.253 12.4388C86.6777 8.42016 87.8283 6.10352e-05 87.8283 6.10352e-05C87.8283 6.10352e-05 88.0201 10.3338 90.3213 13.587C92.6225 16.8403 99.1425 32.915 99.1425 32.915C99.1425 32.915 99.1425 53.1998 104.512 63.1508C109.881 73.1018 120.237 84.2011 119.661 91.473V95.683C119.661 95.683 131.167 84.7752 130.4 81.1392C129.633 77.5033 128.674 68.8918 121.387 63.7249C114.1 58.558 109.306 50.3293 114.484 38.4646C119.661 26.5999 119.661 24.4949 119.661 24.4949L116.21 39.2301C116.21 39.2301 114.292 52.4343 119.661 57.0271C125.031 61.6199 132.126 70.04 132.126 70.04L130.592 42.4833L135.578 53.3912C135.578 53.3912 146.317 39.6128 158.973 35.02C171.63 30.4272 179.492 14.3525 179.492 14.3525L190.231 5.93239L181.41 16.4575C181.41 16.4575 178.725 28.8963 163.575 37.6992C148.426 46.502 138.646 59.5149 138.071 67.5522C137.495 75.5896 136.92 82.6701 136.92 82.6701C136.92 82.6701 165.301 81.7133 171.63 69.2745C177.958 56.8357 178.533 32.1495 184.67 28.1308C190.806 24.1122 202.312 19.1367 202.312 19.1367L189.464 29.6618C189.464 29.6618 186.779 38.2732 187.354 44.397C187.93 50.5207 183.136 56.2616 183.136 56.2616L179.492 66.9781L175.465 76.1637C175.465 76.1637 191.957 76.5464 200.586 86.3061C209.216 96.0658 230.693 98.9362 230.693 98.9362L218.612 102.189C218.612 102.189 207.106 98.3621 196.176 91.2816C185.245 84.2011 186.396 77.886 172.78 84.9665C159.165 92.0471 140.564 97.9794 140.564 97.9794C140.564 97.9794 151.303 93.0039 170.671 105.06C190.039 117.116 161.083 102.955 152.453 107.548C143.824 112.14 139.797 106.4 136.345 117.881C132.893 129.363 126.565 160.747 133.852 178.353L141.139 195.959H99.7178Z" fill="#3F3D56"/>
<path id="Vector_5" opacity="0.1" d="M171.92 69.2745C166.779 79.3801 147.082 81.9072 139.874 82.4996C139.672 85.0938 139.538 86.7344 139.538 86.7344C139.538 86.7344 167.92 85.7775 174.248 73.3388C180.576 60.9 181.151 36.2138 187.288 32.1951C187.939 31.7689 188.65 31.3319 189.402 30.8912C189.612 30.1189 189.755 29.6617 189.755 29.6617L202.603 19.1366C202.603 19.1366 191.097 24.1121 184.961 28.1308C178.824 32.1495 178.249 56.8357 171.92 69.2745Z" fill="black"/>
<path id="Vector_6" opacity="0.1" d="M138.851 49.9415C138.809 54.6531 138.196 57.4554 138.196 57.4554C138.196 57.4554 148.93 43.6829 161.583 39.0872C162.331 38.6151 163.09 38.1503 163.866 37.6991C179.016 28.8962 181.701 16.4574 181.701 16.4574L190.522 5.93231L179.783 14.3524C179.783 14.3524 171.921 30.4272 159.264 35.0199C150.637 38.1506 142.902 45.548 138.851 49.9415Z" fill="black"/>
<path id="Vector_7" opacity="0.1" d="M122.28 95.5372V99.7473C122.28 99.7473 133.785 88.8394 133.018 85.2035C132.432 82.4228 131.729 76.7332 128.174 71.8987C129.776 75.5523 130.264 79.116 130.691 81.1392C131.241 83.7465 125.48 90.0928 122.177 93.4752C122.293 94.156 122.327 94.8482 122.28 95.5372Z" fill="black"/>
<path id="Vector_8" opacity="0.1" d="M106.845 66.6457C106.937 66.8396 107.031 67.0305 107.13 67.2151C110.071 72.6649 114.504 78.458 117.821 83.7793C115.14 78.5096 110.475 72.4835 106.845 66.6457Z" fill="black"/>
<path id="Vector_9" opacity="0.1" d="M116.194 58.4986C114.648 54.7175 114.393 50.2183 116.17 44.9461C116.148 43.0354 116.258 41.1255 116.501 39.2301L119.52 26.3401C118.963 28.1989 117.69 31.785 114.775 38.4646C111.084 46.9207 112.462 53.5285 116.194 58.4986Z" fill="black"/>
<path id="Vector_10" opacity="0.1" d="M200.877 86.306C194.893 79.5377 185.128 77.2797 179.704 76.531L178.083 80.2279C178.083 80.2279 194.575 80.6107 203.204 90.3703C207.99 95.7825 216.725 99.0753 223.559 100.936L230.984 98.9362C230.984 98.9362 209.507 96.0657 200.877 86.306Z" fill="black"/>
<path id="Vector_11" opacity="0.1" d="M83.5431 83.6725C91.5972 80.2279 80.4749 60.9 80.4749 60.9L80.1706 60.7608C82.9435 66.599 86.965 77.1494 81.2158 79.6082C75.8361 81.909 70.7994 76.1849 68.0471 72.1293C68.147 72.4162 68.2019 72.5733 68.2019 72.5733C68.2019 72.5733 75.489 87.1171 83.5431 83.6725Z" fill="black"/>
<path id="Vector_12" opacity="0.1" d="M109.815 96.1113C109.815 96.1113 112.242 88.6462 107.683 84.037C108.801 88.0077 107.488 92.047 107.488 92.047C104.521 85.3854 94.326 82.5034 89.8606 81.5396C90.0338 83.7575 90.0631 85.2035 90.0631 85.2035C90.0631 85.2035 105.98 87.4998 109.815 96.1113Z" fill="black"/>
<path id="Vector_13" opacity="0.1" d="M119.52 26.34C119.952 24.8971 119.952 24.4948 119.952 24.4948L119.52 26.34Z" fill="black"/>
<path id="Vector_14" opacity="0.1" d="M23.7878 103.037C23.8265 103.025 23.8658 103.013 23.9042 103C31.9583 100.321 38.8619 90.179 45.9572 86.7344C53.0525 83.2898 57.2713 78.697 66.8595 83.6725C66.8595 83.6725 65.1821 76.8206 61.9315 72.319C63.0082 74.669 63.8784 77.1079 64.5322 79.6082C54.944 74.6327 50.7252 79.2255 43.6299 82.6701C36.5346 86.1147 29.631 96.2571 21.5769 98.9362C13.5228 101.615 0.291016 96.2571 0.291016 96.2571C0.291016 96.2571 9.1122 101.807 20.4263 102.763C21.7206 102.873 22.8249 102.97 23.7878 103.037Z" fill="black"/>
<path id="Vector_15" opacity="0.1" d="M103.737 195.959C107.251 185.21 115.701 155.487 109.048 135.724C106.175 127.189 103.512 121.747 101.26 118.275C102.944 121.562 104.785 125.909 106.721 131.66C114.966 156.155 100.009 195.959 100.009 195.959H103.737Z" fill="black"/>
<path id="Vector_16" opacity="0.1" d="M28.8473 114.445C31.1983 114.683 33.4867 115.344 35.6018 116.396C43.4772 120.326 49.3204 122.818 56.4353 119.923C58.056 119.069 59.869 118.012 61.9597 116.753C62.1227 116.634 62.2841 116.52 62.4489 116.396C72.6124 108.741 86.6113 98.7905 100.227 104.723C100.227 104.723 97.4748 102.03 94.3903 99.4738C81.9109 96.4188 69.4134 105.334 60.1216 112.332C49.958 119.986 43.2463 117.307 33.2745 112.332C23.3027 107.356 13.1392 112.906 13.1392 112.906C20.5485 112.684 25.3228 113.348 28.8473 114.445Z" fill="black"/>
<path id="Vector_17" opacity="0.1" d="M48.312 28.9521C48.5308 29.3197 48.7958 29.6578 49.1006 29.9582C48.8767 29.5942 48.6122 29.2567 48.312 28.9521Z" fill="black"/>
<path id="Vector_18" opacity="0.1" d="M83.3512 60.1345C83.6476 60.4142 83.9253 60.713 84.1825 61.029C83.3425 59.0138 82.3051 57.2713 81.0239 56.0702C74.6957 50.1379 64.3403 50.5206 64.3403 50.5206L77.327 56.4604C79.5523 57.2889 81.5974 58.5362 83.3512 60.1345Z" fill="black"/>
<path id="Vector_19" opacity="0.1" d="M97.1321 34.2545C97.9147 35.3825 97.475 40.1698 96.7606 45.0658C95.3007 55.071 96.8751 65.3161 101.516 74.3038C102.127 75.51 102.809 76.6788 103.559 77.8041C99.1401 68.953 97.6584 58.9269 99.0879 49.1301C99.8023 44.2341 100.242 39.4468 99.4594 38.3188C97.7336 35.8311 90.4465 20.5218 89.8712 16.5031C89.6987 14.944 89.6585 13.3732 89.7511 11.8074C88.2614 7.58967 88.1192 0 88.1192 0C88.1192 0 86.9686 8.42012 87.5439 12.4388C88.1192 16.4575 95.4063 31.7668 97.1321 34.2545Z" fill="black"/>
<path id="Vector_20" opacity="0.1" d="M115.123 7.79887C115.046 7.42063 114.929 7.05157 114.775 6.69781C114.775 6.69781 114.922 7.11082 115.123 7.79887Z" fill="black"/>
<path id="Vector_21" opacity="0.1" d="M47.3905 27.0719C49.0806 27.2784 51.0246 27.7958 52.5075 28.9959C52.4108 28.6694 52.3264 28.3767 52.2592 28.1308C50.5333 21.8157 41.3286 22.9639 41.3286 22.9639C45.4883 23.4961 46.5628 25.2716 47.3905 27.0719Z" fill="black"/>
<path id="Vector_22" d="M95.053 187.782C96.4203 192.826 101.104 195.95 101.104 195.95C101.104 195.95 103.57 190.896 102.203 185.852C100.835 180.808 96.1522 177.685 96.1522 177.685C96.1522 177.685 93.6858 182.738 95.053 187.782Z" fill="#3F3D56"/>
<path id="Vector_23" d="M97.062 186.698C100.814 190.343 101.272 195.946 101.272 195.946C101.272 195.946 95.6475 195.639 91.8956 191.994C88.1438 188.35 87.6855 182.747 87.6855 182.747C87.6855 182.747 93.3102 183.054 97.062 186.698Z" fill="#FC9219"/>
<path id="Vector_24" d="M84.627 49.9463C84.3009 55.1612 80.3403 59.1585 80.3403 59.1585C80.3403 59.1585 76.9086 54.7008 77.2348 49.4859C77.5609 44.271 81.5215 40.2737 81.5215 40.2737C81.5215 40.2737 84.9532 44.7314 84.627 49.9463Z" fill="#FC9219"/>
<path id="Vector_25" d="M43.3417 16.9786C47.7708 19.7652 49.3863 25.1504 49.3863 25.1504C49.3863 25.1504 43.8207 26.0176 39.3916 23.231C34.9624 20.4444 33.3469 15.0592 33.3469 15.0592C33.3469 15.0592 38.9125 14.192 43.3417 16.9786Z" fill="#FC9219"/>
<path id="Vector_26" d="M33.4508 80.5558C37.88 83.3424 39.4955 88.7276 39.4955 88.7276C39.4955 88.7276 33.9299 89.5947 29.5007 86.8081C25.0716 84.0215 23.4561 78.6364 23.4561 78.6364C23.4561 78.6364 29.0216 77.7692 33.4508 80.5558Z" fill="#FC9219"/>
<path id="Vector_27" d="M57.0148 104.942C61.4439 107.728 63.0594 113.113 63.0594 113.113C63.0594 113.113 57.4938 113.981 53.0647 111.194C48.6355 108.407 47.02 103.022 47.02 103.022C47.02 103.022 52.5856 102.155 57.0148 104.942Z" fill="#FC9219"/>
<path id="Vector_28" d="M123.494 26.2731C122.158 31.3253 117.494 34.4781 117.494 34.4781C117.494 34.4781 114.996 29.4397 116.332 24.3876C117.668 19.3354 122.331 16.1826 122.331 16.1826C122.331 16.1826 124.829 21.2209 123.494 26.2731Z" fill="#FC9219"/>
<path id="Vector_29" d="M165.628 30.2124C164.058 35.197 159.253 38.1298 159.253 38.1298C159.253 38.1298 156.992 32.9809 158.562 27.9962C160.132 23.0116 164.938 20.0788 164.938 20.0788C164.938 20.0788 167.198 25.2277 165.628 30.2124Z" fill="#FC9219"/>
<path id="Vector_30" d="M211.169 85.6892C208.325 90.0764 202.91 91.6257 202.91 91.6257C202.91 91.6257 202.106 86.0619 204.95 81.6747C207.794 77.2875 213.208 75.7382 213.208 75.7382C213.208 75.7382 214.013 81.302 211.169 85.6892Z" fill="#FC9219"/>
<path id="Vector_31" d="M139.674 121.563C139.674 121.563 139.217 123.235 140.13 123.842C141.044 124.45 141.349 127.337 141.349 127.337L139.521 132.351L134.649 133.263L132.822 129.768V124.602C132.822 124.602 133.431 122.019 133.279 121.259C133.126 120.499 139.674 121.563 139.674 121.563Z" fill="#FFB9B9"/>
<path id="Vector_32" opacity="0.2" d="M139.674 121.563C139.674 121.563 139.217 123.235 140.13 123.842C141.044 124.45 141.349 127.337 141.349 127.337L139.521 132.351L134.649 133.263L132.822 129.768V124.602C132.822 124.602 133.431 122.019 133.279 121.259C133.126 120.499 139.674 121.563 139.674 121.563Z" fill="black"/>
<path id="Vector_33" d="M144.546 150.281L148.505 151.041C148.505 151.041 148.809 155.447 148.505 156.511C148.2 157.575 147.896 158.79 148.2 159.094C148.505 159.398 146.83 167.147 146.982 167.603C147.135 168.059 147.439 169.427 147.287 170.338C147.135 171.25 146.678 170.946 146.982 171.858C147.287 172.769 147.591 172.921 147.287 173.529C146.982 174.137 145.46 188.876 145.003 189.028C144.546 189.18 140.435 189.332 140.435 189.028C140.435 188.724 141.805 186.445 141.348 185.837C140.892 185.229 141.501 174.897 141.501 174.441C141.501 173.985 142.414 173.225 141.958 172.921C141.501 172.617 141.196 172.314 141.348 171.858C141.501 171.402 141.805 171.25 141.501 170.794C141.196 170.338 141.196 161.221 140.13 160.917C140.13 160.917 138.76 167.603 139.217 169.275C139.674 170.946 139.065 171.554 139.065 171.554L141.196 173.377L138.303 178.847L135.258 175.352C135.258 175.352 135.258 174.441 134.649 174.289C134.04 174.137 133.735 173.985 133.735 173.529C133.735 173.073 132.669 170.186 132.669 170.186C132.669 170.186 129.624 160.614 131.147 155.751C132.669 150.889 133.256 151.05 133.256 151.05L144.546 150.281Z" fill="#2F2E41"/>
<path id="Vector_34" d="M146.982 181.734L148.657 183.558L148.048 188.572H146.678L144.546 183.861L146.982 181.734Z" fill="#FFB9B9"/>
<path id="Vector_35" d="M148.048 185.077C148.048 185.077 147.439 186.445 146.982 186.141C146.525 185.837 146.374 185.381 145.688 185.381C145.003 185.381 144.394 185.533 144.546 185.837C144.698 186.141 146.525 189.484 146.525 189.484C146.794 190.054 146.933 190.677 146.933 191.307C146.933 191.937 146.794 192.56 146.525 193.13C145.612 195.106 148.962 196.169 149.571 194.042C150.18 191.915 150.332 189.484 150.18 188.572C150.028 187.66 150.941 182.95 150.941 182.95C150.941 182.95 148.481 181.818 147.732 181.776C147.732 181.776 148.353 184.469 148.048 185.077Z" fill="#2F2E41"/>
<path id="Vector_36" d="M143.937 188.42L144.546 190.243C144.546 190.243 144.546 192.067 145.155 192.978C145.764 193.89 146.373 195.865 143.937 196.017C141.501 196.169 140.435 195.258 140.435 195.258C140.435 195.258 140.892 194.042 140.435 193.586C139.978 193.13 140.435 192.219 140.435 192.219L140.892 188.572L143.937 188.42Z" fill="#2F2E41"/>
<path id="Vector_37" d="M139.826 173.225H141.196L148.048 182.19C148.048 182.19 146.83 185.077 145.003 185.381C145.003 185.381 144.698 185.229 143.328 184.317C141.958 183.406 138.303 178.847 138.303 178.847L137.846 176.264L139.826 173.225Z" fill="#2F2E41"/>
<path id="Vector_38" d="M136.476 123.538C139.167 123.538 141.349 121.361 141.349 118.676C141.349 115.991 139.167 113.814 136.476 113.814C133.785 113.814 131.604 115.991 131.604 118.676C131.604 121.361 133.785 123.538 136.476 123.538Z" fill="#FFB9B9"/>
<path id="Vector_39" d="M142.414 124.906L140.892 124.298C140.892 124.298 140.739 129.616 137.846 129.616C134.953 129.616 131.908 128.857 131.908 127.337C131.908 125.818 129.472 130.072 129.472 130.072C129.472 130.072 131.756 145.267 131.604 145.419C131.451 145.571 133.279 153.624 133.279 153.624C133.279 153.624 141.044 153.928 143.632 152.864C146.221 151.801 146.982 149.825 146.982 149.825L145.916 136.454L143.785 126.122L142.414 124.906Z" fill="#FC9219"/>
<path id="Vector_40" d="M139.827 123.538C139.827 123.538 140.435 122.931 141.349 123.538C142.262 124.146 147.896 125.514 147.896 125.97V131.744C147.896 131.744 148.048 132.655 147.591 133.263C147.135 133.871 146.069 136.15 146.678 137.214C147.287 138.277 149.571 150.585 149.114 152.105C148.657 153.624 147.439 154.992 147.439 154.992C147.439 154.992 140.892 141.164 140.892 137.214C140.892 133.263 140.955 128.416 140.955 128.416L139.827 123.538Z" fill="#575A89"/>
<path id="Vector_41" d="M146.525 126.122H147.896C147.896 126.122 153.073 135.998 153.073 137.973C153.073 139.949 149.723 150.889 149.419 151.041C149.114 151.193 148.2 149.369 148.2 149.369L147.439 143.292C147.439 143.292 148.962 139.645 148.505 139.037C148.048 138.429 145.764 133.719 145.764 133.719L146.525 126.122Z" fill="#575A89"/>
<path id="Vector_42" d="M133.047 123.538C133.047 123.538 131.299 124.754 130.995 125.21C130.69 125.666 126.122 128.249 125.97 128.857C125.818 129.464 129.472 134.631 129.472 134.631C129.472 134.631 130.995 143.14 130.995 143.747C130.995 144.355 131.604 154.688 131.604 154.688C131.604 154.688 137.847 156.511 137.847 155.447C137.847 154.384 137.999 139.189 137.085 135.846C136.172 132.503 133.047 123.538 133.047 123.538Z" fill="#575A89"/>
<path id="Vector_43" d="M134.04 154.992C134.04 154.992 139.217 161.981 136.476 161.829C133.735 161.677 131.908 155.751 131.908 155.751L134.04 154.992Z" fill="#FFB9B9"/>
<path id="Vector_44" d="M127.797 128.401L125.97 128.857C125.97 128.857 124.447 142.228 125.361 144.051C126.274 145.875 131.147 157.727 131.147 157.271C131.147 156.815 135.433 156.002 135.269 155.573C135.106 155.144 134.192 153.32 133.888 152.712C133.583 152.105 133.126 151.345 133.279 150.585C133.431 149.825 131.604 146.573 131.604 146.573C131.604 146.573 131.147 144.659 130.995 143.747C130.842 142.836 129.472 132.807 129.472 132.807L127.797 128.401Z" fill="#575A89"/>
<path id="Vector_45" d="M141.254 114.912C141.16 114.626 140.964 114.385 140.702 114.236C140.716 113.934 140.677 113.632 140.586 113.344C140.283 112.502 139.564 112.55 138.886 112.178C138.592 112.016 138.61 111.873 138.457 111.608C138.252 111.256 137.951 110.968 137.59 110.777C137.172 110.481 136.689 110.288 136.181 110.216C135.1 110.146 134.271 111.102 133.237 111.408C132.782 111.543 132.292 111.549 131.835 111.677C131.377 111.804 130.92 112.109 130.851 112.554C130.82 112.759 130.876 112.969 130.844 113.174C130.78 113.581 130.4 113.867 130.145 114.202C129.582 114.943 129.646 115.989 130.096 116.795C130.192 116.963 130.3 117.123 130.421 117.273C130.459 117.656 130.576 118.027 130.764 118.364C131.215 119.17 131.99 119.772 132.8 120.273C132.733 120.006 132.693 119.733 132.679 119.459C132.668 119.367 132.681 119.274 132.716 119.189C132.806 119.012 133.045 118.965 133.226 118.868C133.4 118.754 133.54 118.597 133.634 118.413C133.728 118.228 133.772 118.023 133.761 117.816C133.772 117.41 133.68 117.003 133.726 116.598C133.728 116.504 133.751 116.411 133.793 116.327C133.835 116.242 133.895 116.168 133.968 116.109C134.108 116.034 134.266 115.999 134.425 116.006C135.196 115.977 136.002 115.964 136.682 115.621C136.903 115.484 137.138 115.372 137.384 115.287C137.962 115.146 138.553 115.526 138.886 115.992C139.219 116.458 139.385 117.012 139.692 117.493C140 117.974 140.531 118.403 141.125 118.346C141.158 118.346 141.191 118.34 141.221 118.327C141.252 118.314 141.279 118.295 141.302 118.272C141.328 118.229 141.339 118.179 141.335 118.13L141.368 115.996C141.396 115.631 141.357 115.264 141.254 114.912Z" fill="#2F2E41"/>
<path id="Vector_46" d="M222.043 203C238.588 203 252 202.047 252 200.87C252 199.694 238.588 198.74 222.043 198.74C205.498 198.74 192.086 199.694 192.086 200.87C192.086 202.047 205.498 203 222.043 203Z" fill="#3F3D56"/>
<path id="Vector_47" d="M211.558 195.879C211.558 195.879 209 198.028 207.654 197.894C206.308 197.759 203.75 197.759 204.827 199.237C205.904 200.714 210.346 201.52 212.231 201.655C214.115 201.789 218.288 201.923 218.019 201.117C217.749 200.311 217.48 196.55 216.403 196.282C215.327 196.013 211.558 195.879 211.558 195.879Z" fill="#575A89"/>
<path id="Vector_48" d="M226.236 193.768C226.236 193.768 224.352 196.525 223.019 196.756C221.686 196.988 219.223 197.674 220.658 198.808C222.093 199.943 226.589 199.527 228.44 199.151C230.292 198.775 234.347 197.786 233.871 197.082C233.394 196.377 232.122 192.827 231.012 192.857C229.903 192.887 226.236 193.768 226.236 193.768Z" fill="#575A89"/>
<path id="Vector_49" d="M210.06 154.353C210.06 154.353 208.327 166.193 208.731 168.342C209.135 170.491 209.404 173.849 209.404 173.849C209.404 173.849 209.135 176.67 209.404 178.013C209.673 179.357 211.288 192.117 211.288 192.386C211.288 192.655 211.019 193.461 211.288 194.132C211.558 194.804 212.096 194.267 211.288 195.341C210.481 196.416 211.019 196.685 211.154 196.685C211.288 196.685 216.538 197.222 216.807 196.685C217.076 196.147 216.673 196.013 216.807 195.341C216.942 194.67 217.076 194.535 217.346 194.401C217.615 194.267 218.153 194.535 217.749 193.864C217.346 193.192 216.403 192.386 216.673 191.983C216.942 191.58 216.538 188.625 216.538 188.625C216.538 188.625 216.269 182.043 216.134 178.013C216 173.984 217.346 169.819 217.346 169.819C217.513 173.117 218.74 176.272 220.845 178.819C224.345 182.983 226.095 190.774 226.095 190.774C226.095 190.774 226.903 191.983 226.499 193.058C226.095 194.132 224.884 193.461 226.095 194.132C227.306 194.804 231.479 193.864 231.883 193.461C232.287 193.058 231.345 192.52 231.614 191.446C231.883 190.371 232.96 190.64 232.018 190.103C231.075 189.565 230.806 189.7 230.806 189.162C230.806 188.625 228.383 176.939 224.614 173.581L224.345 161.357C224.345 161.357 227.71 152.76 224.211 151.954C220.711 151.148 210.06 154.353 210.06 154.353Z" fill="#2F2E41"/>
<path id="Vector_50" d="M212.5 122.537C212.5 122.537 214.788 128.179 214.25 128.985C213.711 129.791 220.846 126.298 220.846 126.298C220.846 126.298 218.557 120.657 218.557 119.985C218.557 119.313 212.5 122.537 212.5 122.537Z" fill="#A0616A"/>
<path id="Vector_51" d="M214.183 123.947C216.933 123.947 219.163 121.722 219.163 118.977C219.163 116.233 216.933 114.007 214.183 114.007C211.432 114.007 209.202 116.233 209.202 118.977C209.202 121.722 211.432 123.947 214.183 123.947Z" fill="#A0616A"/>
<path id="Vector_52" d="M220.845 124.015C220.845 124.015 217.346 123.612 215.596 125.761C213.846 127.91 213.577 128.447 213.577 128.447C213.577 128.447 209.404 135.164 210.211 138.522C210.408 138.825 210.588 139.139 210.75 139.462C211.019 139.999 211.019 147.522 210.75 148.73C210.481 149.939 210.211 150.342 210.481 152.089C210.75 153.835 208.327 156.656 211.154 157.193C213.98 157.73 216.134 157.327 217.076 156.118C218.019 154.909 217.211 154.103 220.172 154.103C221.986 154.072 223.719 153.351 225.018 152.089C225.018 152.089 223.537 150.477 224.076 150.208C224.614 149.939 224.076 149.268 223.807 148.596C223.537 147.924 223.537 147.387 223.941 147.387C224.345 147.387 224.076 147.119 223.807 146.447C223.537 145.775 228.518 134.223 225.556 130.865C222.595 127.507 221.115 125.626 221.115 125.626C221.115 125.626 221.653 123.612 220.845 124.015Z" fill="#FC9219"/>
<path id="Vector_53" d="M213.173 136.776V142.686L208.865 156.924C208.865 156.924 206.039 164.312 208.865 164.312C211.692 164.312 211.541 157.261 211.541 157.261L217.615 146.581C217.615 146.581 220.038 138.119 219.768 137.447C219.499 136.776 213.173 136.776 213.173 136.776Z" fill="#A0616A"/>
<path id="Vector_54" d="M215.461 128.044C215.461 128.044 211.423 129.656 212.5 133.955C213.577 138.253 212.5 138.119 212.5 138.119C212.5 138.119 218.019 137.581 219.769 138.79L220.172 137.178C220.172 137.178 221.788 127.91 215.461 128.044Z" fill="#FC9219"/>
<path id="Vector_55" d="M212.482 115.246C212.171 115.356 211.838 115.387 211.512 115.337C211.186 115.286 210.878 115.156 210.615 114.956C210.36 114.748 210.18 114.462 210.103 114.142C210.027 113.822 210.057 113.486 210.191 113.185C210.449 112.68 211 112.403 211.529 112.197C212.695 111.742 213.923 111.465 215.172 111.376C215.768 111.334 216.393 111.34 216.924 111.612C217.187 111.746 217.416 111.94 217.676 112.079C218.155 112.335 218.712 112.392 219.23 112.556C219.759 112.729 220.245 113.012 220.655 113.389C221.065 113.765 221.389 114.224 221.606 114.736C221.746 115.084 221.845 115.447 221.898 115.818C222.053 116.834 221.945 117.873 221.584 118.835C221.011 120.36 219.807 121.692 219.739 123.319C219.003 122.786 218.73 121.824 218.139 121.132C217.7 120.622 217.1 120.274 216.438 120.148C216.255 120.137 216.078 120.072 215.931 119.963C215.828 119.841 215.764 119.691 215.746 119.532L215.242 117.157C215.139 116.674 215.009 116.147 214.611 115.853C214.364 115.695 214.082 115.596 213.79 115.565C213.095 115.443 212.391 115.379 211.686 115.373" fill="#2F2E41"/>
</g>
<defs>
<clipPath id="clip0_237_491">
<rect width="252" height="203" fill="white"/>
</clipPath>
</defs>
</svg>
